<?xml version="1.0" standalone="no"?>
<!DOCTYPE svg PUBLIC "-//W3C//DTD SVG 20010904//EN"
 "http://www.w3.org/TR/2001/REC-SVG-20010904/DTD/svg10.dtd">
<svg version="1.0" xmlns="http://www.w3.org/2000/svg"
 width="256.000000pt" height="256.000000pt" viewBox="0 0 256.000000 256.000000"
 preserveAspectRatio="xMidYMid meet">
<metadata>
Created by potrace 1.14, written by Peter Selinger 2001-2017
</metadata>
<g transform="translate(0.000000,256.000000) scale(0.100000,-0.100000)"
fill="#000000" stroke="none">
<path d="M1144 2435 c-21 -6 -54 -19 -71 -28 -41 -22 -115 -96 -107 -108 3 -5
2 -9 -3 -9 -12 0 -35 -57 -38 -92 -2 -27 -11 -35 -86 -75 -46 -25 -91 -51
-100 -59 -8 -8 -20 -14 -26 -14 -6 0 -13 -3 -15 -8 -1 -4 -23 -23 -48 -42 -71
-55 -138 -119 -207 -200 l-64 -74 -82 -2 c-68 -1 -90 -5 -132 -28 -56 -30
-107 -83 -138 -141 -27 -52 -29 -190 -4 -247 19 -41 101 -131 129 -141 14 -5
18 -18 18 -64 0 -58 20 -189 39 -250 29 -98 110 -240 173 -306 20 -22 26 -36
22 -51 -25 -75 -2 -193 50 -261 62 -81 145 -120 253 -117 79 2 139 28 204 91
46 45 53 48 87 42 62 -11 241 -4 328 13 36 7 149 37 164 43 8 3 17 7 20 8 31
8 60 19 86 32 30 15 33 15 66 -10 120 -92 288 -84 388 17 56 55 67 74 86 142
15 56 16 73 5 134 -7 38 -17 70 -23 72 -14 5 -3 39 20 64 86 94 187 321 215
478 10 62 15 71 42 85 16 9 52 38 78 64 68 68 81 103 81 217 0 89 -23 141 -88
204 -61 58 -125 83 -221 85 -24 1 -35 9 -50 34 -59 100 -304 270 -421 291 -13
3 -28 7 -33 10 -15 10 -150 36 -198 38 -39 3 -49 8 -72 38 -40 54 -65 76 -123
104 -62 30 -145 39 -204 21z m442 -371 c46 -5 151 -39 199 -64 96 -50 120 -66
179 -125 73 -71 72 -68 37 -125 -17 -27 -28 -50 -25 -50 4 0 2 -6 -4 -12 -5
-7 -9 -49 -8 -93 1 -62 6 -90 24 -125 30 -57 88 -118 130 -135 35 -15 35 -19
15 -110 -4 -16 -6 -33 -5 -37 1 -5 -2 -8 -6 -8 -4 0 -8 -8 -9 -18 -2 -30 -64
-153 -116 -230 l-48 -73 -47 7 c-26 3 -49 7 -52 7 -30 5 -116 -19 -156 -44
-59 -38 -87 -69 -116 -129 -25 -49 -27 -58 -29 -111 -2 -34 -6 -38 -55 -59
-30 -12 -59 -23 -66 -24 -7 -1 -17 -4 -23 -8 -5 -3 -26 -9 -46 -12 -20 -3 -42
-8 -50 -10 -50 -18 -284 -31 -306 -18 -5 4 -16 25 -23 47 -17 52 -50 103 -86
135 -82 71 -209 94 -304 56 -48 -19 -63 -14 -91 30 -11 19 -26 40 -33 47 -13
13 -74 159 -80 194 -3 12 -8 53 -11 91 l-7 69 53 27 c30 16 71 44 91 63 41 40
92 145 85 174 -3 12 -1 17 5 12 6 -3 8 -1 4 5 -3 6 -8 33 -10 60 -3 27 -16 72
-30 100 l-25 50 27 34 c70 88 254 253 283 253 4 0 17 7 27 15 10 8 34 23 55
34 l36 19 36 -38 c144 -148 401 -103 486 84 21 47 42 64 64 52 5 -2 19 -6 31
-7z"/>
</g>
</svg>
